<svg xmlns="http://www.w3.org/2000/svg" viewBox="0 0 144.23 154.74"><defs><style>.cls-1{fill:#fab922;}</style></defs><title>cercle_uniquement_1</title><g id="Layer_2" data-name="Layer 2"><g id="colored"><path class="cls-1" d="M85.88,89.84a18.79,18.79,0,0,1-2.59.18A18.44,18.44,0,0,1,66.05,78.26a7.17,7.17,0,0,0-13.58,4.56,6.2,6.2,0,0,0,.23.69,32.68,32.68,0,0,0,30.58,20.86,33.43,33.43,0,0,0,4.57-.32A32.92,32.92,0,0,0,116,66.93,33,33,0,0,0,83.36,38.51h0a34.63,34.63,0,0,0-4.54.31A32.9,32.9,0,0,0,53.71,57.07,7.18,7.18,0,0,0,57,66.66a7.07,7.07,0,0,0,3.13.72,7.21,7.21,0,0,0,6.45-4A18.59,18.59,0,0,1,80.79,53a18.36,18.36,0,0,1,2.56-.18,18.58,18.58,0,0,1,14.8,29.79A18.45,18.45,0,0,1,85.88,89.84Z"/><path class="cls-1" d="M28.25,51.08a7.14,7.14,0,0,0-.18,4.43,7.23,7.23,0,0,0,4.41,4.79,7.34,7.34,0,0,0,2.49.44,7.2,7.2,0,0,0,6.73-4.68A44.36,44.36,0,0,1,77.26,27.48a45.93,45.93,0,0,1,6.09-.42A44.14,44.14,0,0,1,99.14,30a7,7,0,0,0,2.56.48,7.18,7.18,0,0,0,2.56-13.88,58.75,58.75,0,0,0-76,34.52Z"/><path class="cls-1" d="M19.07,96.47A69,69,0,0,1,46.34,13.23a7.18,7.18,0,0,0,2.21-9.9A7.14,7.14,0,0,0,42.49,0h0a7.22,7.22,0,0,0-3.85,1.12A83.37,83.37,0,0,0,3.07,93.84c.74,2.63,1.62,5.27,2.63,7.85A84.16,84.16,0,0,0,26.1,132,7.18,7.18,0,1,0,36,121.59,69.64,69.64,0,0,1,19.07,96.47Z"/><path class="cls-1" d="M142.15,120.37a7.18,7.18,0,0,0-10.15,0,69.68,69.68,0,0,1-48.76,20.06,68.8,68.8,0,0,1-18-2.4,7,7,0,0,0-1.88-.25,7.18,7.18,0,0,0-1.88,14.1,83.16,83.16,0,0,0,21.76,2.9,84.12,84.12,0,0,0,58.88-24.23,7.17,7.17,0,0,0,0-10.14Z"/><path class="cls-1" d="M91.39,129.6a58.72,58.72,0,0,0,34.72-98.41A7.18,7.18,0,0,0,115.66,41,44.38,44.38,0,1,1,39.38,77.52a7.18,7.18,0,0,0-7.1-6.19,6.59,6.59,0,0,0-1,.07,7.17,7.17,0,0,0-6.12,8.09,60.23,60.23,0,0,0,1.64,7.88A58.89,58.89,0,0,0,83.3,130.16,57.79,57.79,0,0,0,91.39,129.6Z"/></g></g></svg>