<svg xmlns="http://www.w3.org/2000/svg" viewBox="0 0 536.48 154.88"><defs><style>.cls-1{fill:#353535;}.cls-2{fill:#b6b6b6;}</style></defs><title>complet</title><g id="Layer_2" data-name="Layer 2"><g id="Gray_scale" data-name="Gray scale"><path class="cls-1" d="M193.91,18.29h9.71q29.13,0,29.13,23.68V53.81H179.34q0,11.84,14.57,11.84h20.62V77.5H193.91q-29.13,0-29.13-23.69V42Q164.78,18.29,193.91,18.29Zm9.71,11.84h-9.71q-14.57,0-14.57,11.84h38.85Q218.19,30.12,203.62,30.13Z"/><path class="cls-1" d="M270.59,18.29h9.71a46.43,46.43,0,0,1,14.57,2V12.66h14.56V53.81q0,23.68-29.13,23.69h-9.71q-29.13,0-29.13-23.69V42Q241.46,18.29,270.59,18.29Zm9.71,11.84h-9.71Q256,30.13,256,42V53.81q0,11.84,14.57,11.84h9.71q14.56,0,14.57-11.84V42Q294.87,30.12,280.3,30.13Z"/><path class="cls-1" d="M318.14,53.81V18.29H332.7V53.81q0,11.84,14.57,11.84H357q14.56,0,14.56-11.84V18.29h14.57V53.81q0,23.68-29.13,23.69h-9.71Q318.14,77.5,318.14,53.81Z"/><path class="cls-1" d="M203.62,95.59q29.13,0,29.13,23.68H218.19q0-11.85-14.57-11.84h-9.71q-14.57,0-14.57,11.84v11.84q0,11.85,14.57,11.85h9.71q14.56,0,14.57-11.85h14.56q0,23.69-29.13,23.69h-9.71q-29.13,0-29.13-23.69V119.27q0-23.68,29.13-23.68Z"/><path class="cls-1" d="M270.59,95.59h9.71q29.13,0,29.13,23.68v11.84q0,23.69-29.13,23.69h-9.71q-29.13,0-29.13-23.69V119.27Q241.46,95.59,270.59,95.59Zm9.71,11.84h-9.71q-14.56,0-14.57,11.84v11.84Q256,143,270.59,143h9.71q14.56,0,14.57-11.85V119.27Q294.87,107.42,280.3,107.43Z"/><path class="cls-1" d="M374.6,107.92c2.42,0,4.82.34,7.24.45a5.86,5.86,0,0,1,1.23-1.14,17.55,17.55,0,0,1,3-1.71V82H371.55v27A4.92,4.92,0,0,1,374.6,107.92Z"/><path class="cls-1" d="M347.27,95.59H357a46.43,46.43,0,0,1,14.57,2V90h14.56v41.15q0,23.69-29.13,23.69h-9.71q-29.13,0-29.13-23.69V119.27Q318.14,95.59,347.27,95.59ZM357,107.43h-9.71q-14.56,0-14.57,11.84v11.84q0,11.85,14.57,11.85H357q14.56,0,14.57-11.85V119.27Q371.55,107.42,357,107.43Z"/><path class="cls-1" d="M297.92,30.62c2.42,0,4.82.34,7.24.45a5.66,5.66,0,0,1,1.23-1.15,18.16,18.16,0,0,1,3-1.7V4.66H294.87v27A4.87,4.87,0,0,1,297.92,30.62Z"/><path class="cls-1" d="M270.59,18.29h9.71a46.43,46.43,0,0,1,14.57,2V12.66h14.56V53.81q0,23.68-29.13,23.69h-9.71q-29.13,0-29.13-23.69V42Q241.46,18.29,270.59,18.29Zm9.71,11.84h-9.71Q256,30.13,256,42V53.81q0,11.84,14.57,11.84h9.71q14.56,0,14.57-11.84V42Q294.87,30.12,280.3,30.13Z"/><g id="_.BE" data-name=".BE"><path class="cls-1" d="M485.47,137.3c-.9,0-1.81.13-2.71.17a2.37,2.37,0,0,0-.46-.43,7.27,7.27,0,0,0-1.14-.64v-8.83h5.46V137.7A1.91,1.91,0,0,0,485.47,137.3Z"/><path class="cls-1" d="M506.65,141.56V146q0,8.88-10.93,8.88h-3.64q-10.92,0-10.92-8.88V130.57h5.46v2.86a17.48,17.48,0,0,1,5.46-.75h3.64Q506.66,132.68,506.65,141.56Zm-20,0V146q0,4.44,5.46,4.44h3.64c3.64,0,5.47-1.48,5.47-4.44v-4.44c0-3-1.83-4.44-5.47-4.44h-3.64Q486.62,137.12,486.62,141.56Z"/><path class="cls-1" d="M521.91,132.68h3.64q10.94,0,10.93,8.88V146h-20q0,4.44,5.46,4.44h7.74v4.44h-7.74Q511,154.88,511,146v-4.44Q511,132.68,521.91,132.68Zm3.64,4.44h-3.64q-5.46,0-5.46,4.44H531Q531,137.12,525.55,137.12Z"/><path class="cls-1" d="M467.11,149v3c0,2,1.22,3,3.64,3h2.43q3.65,0,3.64-3v-3q0-3-3.64-3h-2.43C468.33,146,467.11,147,467.11,149Z"/></g><path class="cls-1" d="M423.94,95.59h9.71q29.13,0,29.13,23.68v11.84H409.37q0,11.85,14.57,11.85h20.62V154.8H423.94q-29.13,0-29.13-23.69V119.27Q394.81,95.59,423.94,95.59Zm9.71,11.84h-9.71q-14.56,0-14.57,11.84h38.85Q448.22,107.42,433.65,107.43Z"/><path class="cls-2" d="M85.88,89.84a18.79,18.79,0,0,1-2.59.18A18.44,18.44,0,0,1,66.05,78.26a7.17,7.17,0,0,0-13.58,4.56,6.2,6.2,0,0,0,.23.69,32.68,32.68,0,0,0,30.58,20.86,33.43,33.43,0,0,0,4.57-.32A32.92,32.92,0,0,0,116,66.93,33,33,0,0,0,83.36,38.51h0a34.63,34.63,0,0,0-4.54.31A32.9,32.9,0,0,0,53.71,57.07,7.18,7.18,0,0,0,57,66.66a7.07,7.07,0,0,0,3.13.72,7.21,7.21,0,0,0,6.45-4A18.59,18.59,0,0,1,80.79,53a18.36,18.36,0,0,1,2.56-.18,18.58,18.58,0,0,1,14.8,29.79A18.45,18.45,0,0,1,85.88,89.84Z"/><path class="cls-2" d="M28.25,51.08a7.14,7.14,0,0,0-.18,4.43,7.23,7.23,0,0,0,4.41,4.79,7.34,7.34,0,0,0,2.49.44,7.2,7.2,0,0,0,6.73-4.68A44.36,44.36,0,0,1,77.26,27.48a45.93,45.93,0,0,1,6.09-.42A44.14,44.14,0,0,1,99.14,30a7,7,0,0,0,2.56.48,7.18,7.18,0,0,0,2.56-13.88,58.75,58.75,0,0,0-76,34.52Z"/><path class="cls-2" d="M19.07,96.47A69,69,0,0,1,46.34,13.23a7.18,7.18,0,0,0,2.21-9.9A7.14,7.14,0,0,0,42.49,0h0a7.22,7.22,0,0,0-3.85,1.12A83.37,83.37,0,0,0,3.07,93.84c.74,2.63,1.62,5.27,2.63,7.85A84.16,84.16,0,0,0,26.1,132,7.18,7.18,0,1,0,36,121.59,69.64,69.64,0,0,1,19.07,96.47Z"/><path class="cls-2" d="M142.15,120.37a7.18,7.18,0,0,0-10.15,0,69.68,69.68,0,0,1-48.76,20.06,68.8,68.8,0,0,1-18-2.4,7,7,0,0,0-1.88-.25,7.18,7.18,0,0,0-1.88,14.1,83.16,83.16,0,0,0,21.76,2.9,84.12,84.12,0,0,0,58.88-24.23,7.17,7.17,0,0,0,0-10.14Z"/><path class="cls-2" d="M91.39,129.6a58.72,58.72,0,0,0,34.72-98.41A7.18,7.18,0,0,0,115.66,41,44.38,44.38,0,1,1,39.38,77.52a7.18,7.18,0,0,0-7.1-6.19,6.59,6.59,0,0,0-1,.07,7.17,7.17,0,0,0-6.12,8.09,60.23,60.23,0,0,0,1.64,7.88A58.89,58.89,0,0,0,83.3,130.16,57.79,57.79,0,0,0,91.39,129.6Z"/></g></g></svg>