<svg id="Outline_only" data-name="Outline only" xmlns="http://www.w3.org/2000/svg" viewBox="0 0 538.48 156.88"><defs><style>.cls-1{fill:none;stroke:#1d1d1b;stroke-miterlimit:10;stroke-width:2px;}</style></defs><title>complet</title><path class="cls-1" d="M255.1,54.64h-9.71q-29.13,0-29.13,23.68V90.16q0,23.69,29.13,23.69H266V102H245.39q-14.56,0-14.57-11.84h53.42V78.32Q284.24,54.64,255.1,54.64ZM230.82,78.32q0-11.85,14.57-11.84h9.71q14.57,0,14.57,11.84Z" transform="translate(-50.48 -35.35)"/><path class="cls-1" d="M398.75,113.85h9.71q29.13,0,29.13-23.69V54.64H423V90.16Q423,102,408.46,102h-9.71q-14.56,0-14.57-11.84V54.64H369.62V90.16Q369.62,113.85,398.75,113.85Z" transform="translate(-50.48 -35.35)"/><path class="cls-1" d="M245.39,143.78h9.71q14.57,0,14.57,11.84h14.57q0-23.68-29.14-23.68h-9.71q-29.13,0-29.13,23.68v11.84q0,23.68,29.13,23.69h9.71q29.13,0,29.14-23.69H269.67q0,11.85-14.57,11.85h-9.71q-14.56,0-14.57-11.85V155.62Q230.82,143.78,245.39,143.78Z" transform="translate(-50.48 -35.35)"/><path class="cls-1" d="M331.78,131.94h-9.71q-29.13,0-29.13,23.68v11.84q0,23.68,29.13,23.69h9.71q29.13,0,29.14-23.69V155.62Q360.92,131.94,331.78,131.94Zm14.57,35.52q0,11.85-14.57,11.85h-9.71q-14.56,0-14.56-11.85V155.62q0-11.84,14.56-11.84h9.71q14.58,0,14.57,11.84Z" transform="translate(-50.48 -35.35)"/><path class="cls-1" d="M437.59,118.31H423V134a46.43,46.43,0,0,0-14.57-2h-9.71q-29.13,0-29.13,23.68v11.84q0,23.68,29.13,23.69h9.71q29.13,0,29.14-23.69V126.31h0ZM423,167.46q0,11.85-14.57,11.85h-9.71q-14.56,0-14.57-11.85V155.62q0-11.84,14.57-11.84h9.71q14.57,0,14.57,11.84Z" transform="translate(-50.48 -35.35)"/><path class="cls-1" d="M360.91,49V41H346.35V56.65a46.43,46.43,0,0,0-14.57-2h-9.71q-29.13,0-29.13,23.68V90.16q0,23.69,29.13,23.69h9.71q29.13,0,29.14-23.69V49h0Zm-38.84,53q-14.56,0-14.56-11.84V78.32q0-11.85,14.56-11.84h9.71q14.57,0,14.57,11.84V90.16q0,11.84-14.57,11.84Z" transform="translate(-50.48 -35.35)"/><path class="cls-1" d="M547.2,169h-3.64a17.48,17.48,0,0,0-5.46.75v-2.86h0v-3h-5.46v18.43q0,8.88,10.92,8.88h3.64q10.93,0,10.93-8.88v-4.44Q558.13,169,547.2,169Zm5.47,13.32q0,4.44-5.47,4.44h-3.64q-5.46,0-5.46-4.44v-4.44q0-4.44,5.46-4.44h3.64q5.47,0,5.47,4.44Z" transform="translate(-50.48 -35.35)"/><path class="cls-1" d="M588,177.91Q588,169,577,169h-3.64q-10.92,0-10.92,8.88v4.44q0,8.88,10.92,8.88h7.74v-4.44h-7.74q-5.46,0-5.46-4.44h20Zm-20,0q0-4.44,5.46-4.44H577q5.47,0,5.47,4.44Z" transform="translate(-50.48 -35.35)"/><path class="cls-1" d="M524.66,182.35h-2.42q-3.65,0-3.65,3v3q0,3,3.65,3h2.42q3.65,0,3.64-3v-3Q528.3,182.36,524.66,182.35Z" transform="translate(-50.48 -35.35)"/><path class="cls-1" d="M485.13,131.94h-9.71q-29.13,0-29.13,23.68v11.84q0,23.68,29.13,23.69h20.63V179.31H475.42q-14.57,0-14.57-11.85h53.42V155.62Q514.27,131.94,485.13,131.94Zm-24.28,23.68q0-11.84,14.57-11.84h9.71q14.56,0,14.57,11.84Z" transform="translate(-50.48 -35.35)"/><path class="cls-1" d="M137.36,126.19a18.68,18.68,0,0,1-2.59.18,18.44,18.44,0,0,1-17.24-11.76A7.17,7.17,0,0,0,104,119.17a6.2,6.2,0,0,0,.23.69,32.69,32.69,0,0,0,30.58,20.86,33.32,33.32,0,0,0,4.57-.32,32.92,32.92,0,0,0,28.1-37.12,33,33,0,0,0-32.59-28.42h0a34.36,34.36,0,0,0-4.53.31,32.9,32.9,0,0,0-25.12,18.25,7.18,7.18,0,0,0,3.32,9.59,7.07,7.07,0,0,0,3.13.72,7.24,7.24,0,0,0,6.46-4,18.56,18.56,0,0,1,14.17-10.3,18.36,18.36,0,0,1,2.56-.18,18.64,18.64,0,0,1,18.39,16,18.58,18.58,0,0,1-15.86,21Z" transform="translate(-50.48 -35.35)"/><path class="cls-1" d="M79.73,87.43a7.14,7.14,0,0,0-.18,4.43A7.23,7.23,0,0,0,84,96.65a7.4,7.4,0,0,0,2.5.44,7.19,7.19,0,0,0,6.72-4.68,44.38,44.38,0,0,1,35.56-28.58,45.93,45.93,0,0,1,6.09-.42,44.1,44.1,0,0,1,15.79,2.9,7.09,7.09,0,0,0,2.56.48,7.18,7.18,0,0,0,2.57-13.88,58.76,58.76,0,0,0-76,34.52Z" transform="translate(-50.48 -35.35)"/><path class="cls-1" d="M70.55,132.82A69,69,0,0,1,97.82,49.58,7.17,7.17,0,0,0,94,36.35h0a7.16,7.16,0,0,0-3.84,1.12,83.36,83.36,0,0,0-35.58,92.72c.74,2.63,1.63,5.27,2.63,7.85a84.16,84.16,0,0,0,20.4,30.32,7.18,7.18,0,1,0,9.87-10.42A69.64,69.64,0,0,1,70.55,132.82Z" transform="translate(-50.48 -35.35)"/><path class="cls-1" d="M193.63,156.72a7.18,7.18,0,0,0-10.15,0,69.66,69.66,0,0,1-48.76,20.06,68.67,68.67,0,0,1-18-2.4,7.17,7.17,0,0,0-8.79,8.86,7.21,7.21,0,0,0,5,5,83.16,83.16,0,0,0,21.76,2.9,84.12,84.12,0,0,0,58.88-24.23,7.17,7.17,0,0,0,0-10.14Z" transform="translate(-50.48 -35.35)"/><path class="cls-1" d="M142.87,166a58.71,58.71,0,0,0,34.72-98.41,7.2,7.2,0,0,0-5.23-2.26,7.18,7.18,0,0,0-5.22,12.09A43.71,43.71,0,0,1,174,87a44.4,44.4,0,0,1-33.11,64.78,44.37,44.37,0,0,1-50-37.87,7.18,7.18,0,0,0-7.09-6.19,6.73,6.73,0,0,0-1,.07,7.17,7.17,0,0,0-6.12,8.09,58.74,58.74,0,0,0,58.13,50.67A59.33,59.33,0,0,0,142.87,166Z" transform="translate(-50.48 -35.35)"/></svg>